# xmcd
#
# Track frame offsets: 
#        150
#        10452
#        23531
#        36290
#        45047
#        55620
#        67908
#        75910
#        86708
#        99746
#        109608
#        120183
#        130800
#        142670
#
# Disc length: 2016 seconds
#
# Revision: 1
# Processed by: cddbd v1.5.2PL0 Copyright (c) Steve Scherf et al.
# Submitted via: ExactAudioCopy v0.95b4
#
DISCID=9607de0e
DTITLE=Johnny Cash - I Walk The Line
DYEAR=2005
DGENRE=Country
TTITLE0=Ballad Of A Teenage Queen
TTITLE1=Folsom Prison Blues
TTITLE2=I Walk The Line
TTITLE3=Wreck Of The Old '97
TTITLE4=Get Rhythm
TTITLE5=Home Of The Blues
TTITLE6=Come In Stranger
TTITLE7=Straight A's In Love
TTITLE8=Next In Line
TTITLE9=It's Just About Time
TTITLE10=The Ways Of A Woman In Love
TTITLE11=There You Go
TTITLE12=Big River
TTITLE13=Guess Things Happen That Way
EXTD=
EXTT0=
EXTT1=
EXTT2=
EXTT3=
EXTT4=
EXTT5=
EXTT6=
EXTT7=
EXTT8=
EXTT9=
EXTT10=
EXTT11=
EXTT12=
EXTT13=
PLAYORDER=
